<svg width="500" height="374" viewBox="0 0 500 374" fill="none" xmlns="http://www.w3.org/2000/svg">
<path d="M500 328.398H0V328.648H500V328.398Z" fill="#EBEBEB"/>
<path d="M449.901 344.494H416.779V344.744H449.901V344.494Z" fill="#EBEBEB"/>
<path d="M331.22 347.208H322.527V347.458H331.22V347.208Z" fill="#EBEBEB"/>
<path d="M415.778 335.208H396.586V335.458H415.778V335.208Z" fill="#EBEBEB"/>
<path d="M95.652 336.888H52.459V337.138H95.652V336.888Z" fill="#EBEBEB"/>
<path d="M110.89 336.888H104.557V337.138H110.89V336.888Z" fill="#EBEBEB"/>
<path d="M225.147 341.111H131.471V341.361H225.147V341.111Z" fill="#EBEBEB"/>
<path d="M237.014 283.8H43.915C40.768 283.8 38.207 281.239 38.207 278.092V6.66C38.207 3.513 40.768 0.951996 43.915 0.951996H237.014C240.16 0.951996 242.721 3.513 242.721 6.66V278.092C242.721 281.239 240.16 283.8 237.014 283.8ZM43.915 1.203C40.905 1.203 38.457 3.651 38.457 6.661V278.093C38.457 281.103 40.905 283.551 43.915 283.551H237.014C240.023 283.551 242.471 281.103 242.471 278.093V6.66C242.471 3.651 240.023 1.202 237.014 1.202L43.915 1.203Z" fill="#EBEBEB"/>
<path d="M453.311 283.8H260.213C257.066 283.8 254.506 281.239 254.506 278.092V6.66C254.506 3.513 257.067 0.951996 260.213 0.951996H453.311C456.459 0.951996 459.019 3.513 459.019 6.66V278.092C459.02 281.239 456.459 283.8 453.311 283.8ZM260.213 1.203C257.204 1.203 254.756 3.651 254.756 6.661V278.093C254.756 281.103 257.204 283.551 260.213 283.551H453.311C456.321 283.551 458.769 281.103 458.769 278.093V6.66C458.769 3.651 456.321 1.202 453.311 1.202L260.213 1.203Z" fill="#EBEBEB"/>
<path d="M289.692 120.058L427.473 120.058V29.8312L289.692 29.8312V120.058Z" fill="#E6E6E6"/>
<path d="M285.488 120.058L425.508 120.058V29.8312L285.488 29.8312V120.058Z" fill="#F0F0F0"/>
<path d="M289.692 137.766L427.473 137.766V120.058L289.692 120.058V137.766Z" fill="#E6E6E6"/>
<path d="M278.484 137.766L418.504 137.766V120.058L278.484 120.058V137.766Z" fill="#F0F0F0"/>
<path d="M419.623 114.173V35.7171L291.374 35.7171V114.173L419.623 114.173Z" fill="#FAFAFA"/>
<path d="M390.703 114.174L374.323 35.718H348.762L365.142 114.174H390.703Z" fill="white"/>
<path d="M416.898 108.315C417.13 108.315 417.319 108.127 417.319 107.895V39.547C417.319 39.315 417.131 39.127 416.898 39.127C416.666 39.127 416.477 39.315 416.477 39.547V107.895C416.477 108.127 416.666 108.315 416.898 108.315Z" fill="#F0F0F0"/>
<path d="M359.651 114.174L343.271 35.718H333.305L349.686 114.174H359.651Z" fill="white"/>
<path d="M292.121 114.173V35.7171H291.374V114.173H292.121Z" fill="#E6E6E6"/>
<path opacity="0.6" d="M284.096 44.591H421.877L422.418 38.005H284.637L284.096 44.591Z" fill="#EBEBEB"/>
<path opacity="0.6" d="M284.096 55.393H421.877L422.418 48.807H284.637L284.096 55.393Z" fill="#EBEBEB"/>
<path opacity="0.6" d="M284.096 66.195H421.877L422.418 59.609H284.637L284.096 66.195Z" fill="#EBEBEB"/>
<path opacity="0.6" d="M284.096 76.997H421.877L422.418 70.411H284.637L284.096 76.997Z" fill="#EBEBEB"/>
<path opacity="0.6" d="M284.096 87.799H421.877L422.418 81.213H284.637L284.096 87.799Z" fill="#EBEBEB"/>
<path opacity="0.6" d="M284.096 98.601H421.877L422.418 92.015H284.637L284.096 98.601Z" fill="#EBEBEB"/>
<path d="M407.688 262.781H378.799V268.477H407.688V262.781Z" fill="#E6E6E6"/>
<path d="M324.31 328.399H329.643V197.334H324.31V328.399Z" fill="#E6E6E6"/>
<path d="M305.836 268.477H378.799V262.781H305.836V268.477Z" fill="#F5F5F5"/>
<path d="M407.688 293.948H378.799V299.644H407.688V293.948Z" fill="#E6E6E6"/>
<path d="M305.836 299.643H378.799V293.947H305.836V299.643Z" fill="#F5F5F5"/>
<path d="M407.688 200.448H378.799V206.144H407.688V200.448Z" fill="#E6E6E6"/>
<path d="M305.836 206.143H378.799V200.447H305.836V206.143Z" fill="#F5F5F5"/>
<path d="M407.688 231.615H378.799V237.311H407.688V231.615Z" fill="#E6E6E6"/>
<path d="M305.836 237.31H378.799V231.614H305.836V237.31Z" fill="#F5F5F5"/>
<path d="M397.272 328.399H402.605V197.334H397.272V328.399Z" fill="#E6E6E6"/>
<path d="M373.466 328.399H378.799V197.334H373.466V328.399Z" fill="#F5F5F5"/>
<path d="M305.835 328.399H311.168V197.334H305.835V328.399Z" fill="#F5F5F5"/>
<path d="M65.3732 328.399H119.951L119.951 222.507H65.3732L65.3732 328.399Z" fill="#E6E6E6"/>
<path d="M79.947 328.399H65.373V313.781H95.227L79.947 328.399Z" fill="#FAFAFA"/>
<path d="M214.182 328.399H268.76V222.507H214.182V328.399Z" fill="#E6E6E6"/>
<path d="M65.3734 323.368H226.902V222.507H65.3734V323.368Z" fill="#FAFAFA"/>
<path d="M212.328 328.399H226.902V313.781H197.047L212.328 328.399Z" fill="#FAFAFA"/>
<path d="M76.6787 285.331H215.596V260.09H76.6787V285.331Z" fill="#F0F0F0"/>
<path d="M76.6787 315.967H215.596V290.726H76.6787V315.967Z" fill="#F0F0F0"/>
<path d="M103.084 262.79H189.192C191.719 262.79 193.768 260.741 193.768 258.213V257.905H98.5078V258.213C98.5078 260.741 100.557 262.79 103.084 262.79Z" fill="#FAFAFA"/>
<path d="M76.6787 254.696L215.596 254.696V229.455L76.6787 229.455V254.696Z" fill="#F0F0F0"/>
<path d="M103.084 232.154H189.192C191.719 232.154 193.768 230.105 193.768 227.577V227.269H98.5078V227.577C98.5078 230.105 100.557 232.154 103.084 232.154Z" fill="#FAFAFA"/>
<path d="M103.084 293.425H189.192C191.719 293.425 193.768 291.376 193.768 288.849V288.541H98.5078V288.849C98.5078 291.376 100.557 293.425 103.084 293.425Z" fill="#FAFAFA"/>
<path d="M74.0686 120.058L211.85 120.058V29.8312L74.0686 29.8312V120.058Z" fill="#E6E6E6"/>
<path d="M69.8648 120.058L209.885 120.058V29.8312L69.8648 29.8312V120.058Z" fill="#F0F0F0"/>
<path d="M74.0686 137.766L211.85 137.766V120.058L74.0686 120.058V137.766Z" fill="#E6E6E6"/>
<path d="M62.8609 137.766L202.881 137.766V120.058L62.8609 120.058V137.766Z" fill="#F0F0F0"/>
<path d="M204 114.174L204 35.7177L75.751 35.7177L75.751 114.174L204 114.174Z" fill="#FAFAFA"/>
<path d="M175.081 114.174L158.7 35.718H133.139L149.52 114.174H175.081Z" fill="white"/>
<path d="M201.275 108.315C201.507 108.315 201.695 108.127 201.695 107.895V39.547C201.695 39.315 201.507 39.127 201.275 39.127C201.043 39.127 200.854 39.315 200.854 39.547V107.895C200.855 108.127 201.043 108.315 201.275 108.315Z" fill="#F0F0F0"/>
<path d="M144.03 114.174L127.649 35.718H117.684L134.065 114.174H144.03Z" fill="white"/>
<path d="M76.498 114.174L76.498 35.7177H75.7511L75.7511 114.174H76.498Z" fill="#E6E6E6"/>
<path opacity="0.6" d="M68.4727 44.591H206.254L206.796 38.005H69.0147L68.4727 44.591Z" fill="#EBEBEB"/>
<path opacity="0.6" d="M68.4727 48.307H206.254L206.796 41.72H69.0147L68.4727 48.307Z" fill="#EBEBEB"/>
<path opacity="0.6" d="M68.4727 52.022H206.254L206.796 45.436H69.0147L68.4727 52.022Z" fill="#EBEBEB"/>
<path opacity="0.6" d="M68.4727 55.738H206.254L206.796 49.151H69.0147L68.4727 55.738Z" fill="#EBEBEB"/>
<path opacity="0.6" d="M68.4727 59.453H206.254L206.796 52.867H69.0147L68.4727 59.453Z" fill="#EBEBEB"/>
<path opacity="0.6" d="M68.4727 63.168H206.254L206.796 56.582H69.0147L68.4727 63.168Z" fill="#EBEBEB"/>
<path d="M96.0143 219.271H100.777V166.179H96.0143V219.271Z" fill="#F5F5F5"/>
<path d="M96.6277 219.234H97.9727V166.142H96.6277V219.234Z" fill="#FAFAFA"/>
<path d="M98.5355 219.235H99.0625V166.143H98.5355V219.235Z" fill="#FAFAFA"/>
<path d="M80.7637 222.507H116.028C116.028 220.053 114.039 218.064 111.585 218.064H85.2067C82.7527 218.064 80.7637 220.053 80.7637 222.507Z" fill="#F0F0F0"/>
<path d="M89.8348 199.138C90.5888 199.138 91.2048 198.521 91.2048 197.768V162.958C91.2048 162.205 90.5878 161.588 89.8348 161.588C89.0808 161.588 88.4648 162.205 88.4648 162.958V197.768C88.4648 198.522 89.0808 199.138 89.8348 199.138Z" fill="#F0F0F0"/>
<path d="M77.0742 178.799H119.716L114.811 149H81.9792L77.0742 178.799Z" fill="#E0E0E0"/>
<path d="M250 373.561C357.082 373.561 443.889 368.492 443.889 362.238C443.889 355.984 357.082 350.915 250 350.915C142.918 350.915 56.1113 355.984 56.1113 362.238C56.1113 368.492 142.918 373.561 250 373.561Z" fill="#F5F5F5"/>
<path d="M104.107 148.36L103.109 148.432L104.437 166.873L105.434 166.801L104.107 148.36Z" fill="#7366FF"/>
<path d="M106.138 176.316L105.141 176.388L105.641 183.325L106.638 183.253L106.138 176.316Z" fill="#7366FF"/>
<path d="M337.709 261.161H123.551C118.707 261.161 114.459 257.198 114.11 252.354L103.587 106.224C103.238 101.38 106.916 97.417 111.76 97.417H325.918C330.762 97.417 335.01 101.38 335.359 106.224L345.882 252.354C346.23 257.198 342.553 261.161 337.709 261.161Z" fill="#7366FF"/>
<path d="M338.532 261.161H124.374C119.53 261.161 115.282 257.198 114.933 252.354L104.41 106.224C104.061 101.38 107.739 97.417 112.583 97.417H326.741C331.585 97.417 335.833 101.38 336.182 106.224L346.705 252.354C347.053 257.198 343.376 261.161 338.532 261.161Z" fill="#7366FF"/>
<path opacity="0.5" d="M338.532 261.161H124.374C119.53 261.161 115.282 257.198 114.933 252.354L104.41 106.224C104.061 101.38 107.739 97.417 112.583 97.417H326.741C331.585 97.417 335.833 101.38 336.182 106.224L346.705 252.354C347.053 257.198 343.376 261.161 338.532 261.161Z" fill="white"/>
<path d="M327.057 101.821H112.899C112.657 101.821 112.418 101.831 112.182 101.85C106.708 102.301 107.826 110.628 113.351 110.628H327.874C333.399 110.628 333.318 102.301 327.779 101.85C327.54 101.831 327.299 101.821 327.057 101.821Z" fill="#7366FF"/>
<path d="M118.477 106.225C118.557 107.34 117.719 108.244 116.603 108.244C115.488 108.244 114.519 107.34 114.439 106.225C114.359 105.11 115.197 104.206 116.313 104.206C117.429 104.206 118.397 105.109 118.477 106.225Z" fill="#FAFAFA"/>
<path d="M125.346 106.225C125.426 107.34 124.588 108.244 123.472 108.244C122.357 108.244 121.388 107.34 121.308 106.225C121.228 105.11 122.066 104.206 123.182 104.206C124.297 104.206 125.266 105.109 125.346 106.225Z" fill="#FAFAFA"/>
<path d="M132.214 106.225C132.294 107.34 131.455 108.244 130.34 108.244C129.225 108.244 128.256 107.34 128.175 106.225C128.095 105.11 128.934 104.206 130.049 104.206C131.164 104.206 132.133 105.109 132.214 106.225Z" fill="#FAFAFA"/>
<path d="M332.854 246.577H127.951C126.188 246.577 124.655 245.147 124.528 243.384L115.874 123.211C115.747 121.448 117.074 120.018 118.837 120.018H323.74C325.503 120.018 327.036 121.447 327.163 123.211L335.817 243.384C335.944 245.147 334.617 246.577 332.854 246.577Z" fill="white"/>
<path d="M246.528 200.798L243.193 154.479L233.085 148.395H205.281L209.055 200.798H246.528Z" fill="white"/>
<path d="M246.528 201.283H209.055C208.801 201.283 208.59 201.087 208.572 200.833L204.798 148.43C204.788 148.296 204.835 148.163 204.927 148.065C205.019 147.966 205.147 147.911 205.282 147.911H233.086C233.174 147.911 233.261 147.935 233.336 147.981L243.443 154.064C243.578 154.145 243.665 154.287 243.676 154.444L247.011 200.763C247.021 200.897 246.974 201.03 246.882 201.128C246.791 201.227 246.662 201.283 246.528 201.283ZM209.506 200.314H246.007L242.727 154.765L232.951 148.88H205.802L209.506 200.314Z" fill="#7366FF"/>
<path d="M243.194 154.479L233.086 148.395L236.797 156.455L243.194 154.479Z" fill="#EBEBEB"/>
<path d="M236.797 156.939C236.612 156.939 236.438 156.832 236.357 156.657L232.646 148.598C232.557 148.405 232.604 148.176 232.763 148.034C232.921 147.892 233.154 147.871 233.336 147.98L243.443 154.064C243.607 154.162 243.697 154.348 243.674 154.538C243.651 154.728 243.519 154.886 243.336 154.942L236.94 156.918C236.893 156.932 236.845 156.939 236.797 156.939ZM234.185 149.622L237.06 155.866L242.016 154.335L234.185 149.622Z" fill="#7366FF"/>
<path d="M220.968 172.005C221.052 173.174 220.173 174.122 219.003 174.122C217.833 174.122 216.818 173.174 216.734 172.005C216.65 170.836 217.529 169.888 218.698 169.888C219.867 169.888 220.884 170.836 220.968 172.005Z" fill="#7366FF"/>
<path d="M234.703 172.005C234.787 173.174 233.908 174.122 232.738 174.122C231.569 174.122 230.553 173.174 230.468 172.005C230.384 170.836 231.263 169.888 232.433 169.888C233.603 169.889 234.619 170.836 234.703 172.005Z" fill="#7366FF"/>
<path d="M238.578 185.735C238.326 185.735 238.114 185.54 238.095 185.285C237.85 181.881 232.512 179.112 226.195 179.112C222.01 179.112 218.253 180.356 216.389 182.359C215.56 183.25 215.177 184.21 215.249 185.215C215.268 185.482 215.067 185.714 214.8 185.733C214.532 185.75 214.301 185.551 214.282 185.284C214.191 184.018 214.674 182.778 215.679 181.698C217.72 179.504 221.749 178.142 226.195 178.142C233.124 178.142 238.776 181.249 239.062 185.214C239.081 185.481 238.88 185.713 238.613 185.732C238.601 185.735 238.589 185.735 238.578 185.735Z" fill="#7366FF"/>
<path d="M213.165 167.717C213.047 167.717 212.929 167.674 212.835 167.588C212.639 167.406 212.627 167.099 212.809 166.903L214.933 164.615C215.115 164.418 215.422 164.408 215.618 164.589C215.814 164.771 215.825 165.078 215.644 165.274L213.521 167.562C213.425 167.665 213.295 167.717 213.165 167.717Z" fill="#7366FF"/>
<path d="M237.583 167.717C237.465 167.717 237.346 167.674 237.252 167.587L234.799 165.299C234.603 165.117 234.593 164.81 234.775 164.614C234.957 164.418 235.264 164.408 235.46 164.59L237.913 166.878C238.109 167.06 238.119 167.367 237.937 167.563C237.842 167.665 237.713 167.717 237.583 167.717Z" fill="#7366FF"/>
<path d="M202.256 211.153H204.516L207.777 215.487L207.465 211.153H209.746L210.31 218.986H208.028L204.785 214.685L205.095 218.986H202.819L202.256 211.153Z" fill="#7366FF"/>
<path d="M211.333 215.074C211.241 213.795 211.525 212.8 212.187 212.087C212.848 211.375 213.815 211.018 215.086 211.018C216.39 211.018 217.419 211.368 218.175 212.068C218.931 212.768 219.354 213.748 219.445 215.009C219.511 215.924 219.411 216.675 219.145 217.261C218.879 217.847 218.467 218.303 217.908 218.629C217.349 218.955 216.635 219.118 215.766 219.118C214.883 219.118 214.141 218.977 213.542 218.696C212.943 218.415 212.442 217.969 212.038 217.36C211.634 216.752 211.399 215.99 211.333 215.074ZM213.754 215.085C213.811 215.876 213.999 216.444 214.317 216.789C214.636 217.135 215.048 217.307 215.554 217.307C216.074 217.307 216.464 217.138 216.725 216.799C216.986 216.461 217.084 215.853 217.021 214.977C216.968 214.24 216.78 213.701 216.458 213.361C216.136 213.021 215.72 212.851 215.211 212.851C214.723 212.851 214.344 213.024 214.073 213.369C213.803 213.716 213.697 214.287 213.754 215.085Z" fill="#7366FF"/>
<path d="M224.15 211.153H227.746C228.455 211.153 229.034 211.249 229.485 211.441C229.935 211.633 230.316 211.909 230.627 212.269C230.938 212.629 231.175 213.047 231.337 213.525C231.5 214.002 231.6 214.508 231.639 215.042C231.699 215.879 231.651 216.528 231.493 216.99C231.336 217.451 231.099 217.838 230.783 218.149C230.467 218.461 230.119 218.668 229.738 218.771C229.218 218.914 228.742 218.985 228.311 218.985H224.715L224.15 211.153ZM226.698 212.927L227.006 217.207H227.599C228.105 217.207 228.46 217.151 228.666 217.039C228.872 216.927 229.025 216.731 229.126 216.451C229.227 216.171 229.255 215.718 229.21 215.091C229.15 214.261 228.974 213.693 228.681 213.387C228.388 213.081 227.928 212.928 227.301 212.928H226.698V212.927Z" fill="#7366FF"/>
<path d="M237.447 217.692H234.699L234.41 218.985H231.939L234.319 211.152H236.959L240.466 218.985H237.931L237.447 217.692ZM236.823 215.999L235.755 213.183L235.102 215.999H236.823Z" fill="#7366FF"/>
<path d="M239.367 211.153H246.724L246.863 213.087H244.395L244.82 218.986H242.4L241.975 213.087H239.507L239.367 211.153Z" fill="#7366FF"/>
<path d="M252.363 217.692H249.615L249.326 218.985H246.855L249.235 211.152H251.875L255.382 218.985H252.847L252.363 217.692ZM251.739 215.999L250.672 213.183L250.019 215.999H251.739Z" fill="#7366FF"/>
<path d="M353.688 119.08C354.581 118.632 355.647 118.053 356.632 117.512C357.635 116.961 358.633 116.386 359.615 115.788C361.574 114.582 363.549 113.39 365.423 112.066C369.205 109.461 372.748 106.57 375.936 103.413C376.354 103.031 376.709 102.607 377.095 102.203L377.665 101.591L377.951 101.285L378.094 101.132C378.132 101.092 378.123 101.1 378.105 101.124L378.073 101.173C377.931 101.44 378.049 101.359 378.104 101.101C378.171 100.853 378.227 100.448 378.245 100.01C378.309 98.194 377.951 95.905 377.516 93.692C376.626 89.207 375.278 84.594 373.946 80.074L377.831 78.37C380.265 82.716 382.293 87.155 383.944 91.968C384.73 94.406 385.452 96.854 385.663 99.861C385.702 100.627 385.718 101.432 385.579 102.371C385.432 103.295 385.2 104.401 384.357 105.655L384.19 105.886L384.061 106.054L383.907 106.242L383.599 106.616L382.982 107.366C382.565 107.86 382.169 108.381 381.726 108.844C378.278 112.673 374.441 116.055 370.346 118.996C368.308 120.485 366.227 121.899 364.064 123.186C362.987 123.838 361.895 124.464 360.786 125.071C359.663 125.695 358.596 126.238 357.32 126.837L353.688 119.08Z" fill="#FFB573"/>
<path d="M344.794 354.178C345.568 354.178 346.414 354.018 347.005 353.878C347.082 353.86 347.141 353.798 347.155 353.719C347.169 353.641 347.135 353.562 347.069 353.519C346.782 353.33 344.239 351.689 343.264 352.13C343.11 352.2 342.917 352.353 342.869 352.688C342.806 353.132 342.917 353.486 343.198 353.742C343.555 354.068 344.15 354.178 344.794 354.178ZM346.444 353.595C344.986 353.886 343.889 353.836 343.465 353.449C343.285 353.285 343.218 353.054 343.262 352.743C343.285 352.576 343.363 352.521 343.427 352.492C343.94 352.26 345.407 352.968 346.444 353.595Z" fill="#7366FF"/>
<path d="M346.96 353.884C346.994 353.884 347.029 353.875 347.06 353.857C347.121 353.821 347.159 353.756 347.159 353.685C347.159 353.583 347.148 351.171 346.237 350.365C345.995 350.151 345.713 350.062 345.397 350.1C344.9 350.16 344.766 350.473 344.729 350.653C344.54 351.597 346.063 353.404 346.862 353.857C346.892 353.875 346.926 353.884 346.96 353.884ZM345.535 350.488C345.698 350.488 345.842 350.545 345.974 350.662C346.518 351.143 346.704 352.497 346.75 353.3C345.953 352.664 345.004 351.306 345.119 350.731C345.138 350.637 345.192 350.525 345.445 350.494C345.475 350.49 345.505 350.488 345.535 350.488Z" fill="#7366FF"/>
<path d="M346.222 94.067C345.248 99.037 343.194 109.104 346.672 112.421C346.672 112.421 345.313 117.463 336.078 117.463C325.923 117.463 331.225 112.422 331.225 112.422C336.768 111.098 336.625 106.986 335.659 103.124L346.222 94.067Z" fill="#FFB573"/>
<path d="M329.284 114.424C327.69 114.64 329.046 110.511 329.694 110.083C331.19 109.094 350.545 107.694 350.419 110.043C350.339 111.054 349.864 113.027 349.018 113.697C348.171 114.367 343.199 112.342 329.284 114.424Z" fill="#263238"/>
<path d="M332.436 113.034C331.17 113.462 331.29 109.301 331.721 108.8C332.719 107.642 348.385 103.617 348.85 105.894C349.029 106.877 349.115 108.841 348.578 109.604C348.041 110.366 343.438 109.105 332.436 113.034Z" fill="#263238"/>
<path d="M326.608 85.108C326.485 85.115 326.361 85.066 326.277 84.963C325.157 83.593 323.701 83.733 323.687 83.735C323.466 83.758 323.273 83.601 323.25 83.383C323.226 83.165 323.384 82.969 323.602 82.946C323.679 82.938 325.502 82.761 326.892 84.46C327.031 84.63 327.006 84.88 326.836 85.018C326.769 85.074 326.689 85.103 326.608 85.108Z" fill="#263238"/>
<path d="M324.67 90.001C324.67 90.001 323.814 93.008 322.695 94.528C323.664 95.269 325.136 94.742 325.136 94.742L324.67 90.001Z" fill="#FF5652"/>
<path d="M325.16 88.786C325.226 89.458 324.923 90.038 324.484 90.082C324.044 90.125 323.635 89.615 323.568 88.943C323.502 88.271 323.805 87.691 324.244 87.647C324.684 87.604 325.094 88.114 325.16 88.786Z" fill="#263238"/>
<path d="M324.442 87.665L322.781 87.358C322.781 87.358 323.734 88.539 324.442 87.665Z" fill="#263238"/>
<path d="M356.7 353.685H348.324L348.981 334.288H357.357L356.7 353.685Z" fill="#FFB573"/>
<path d="M347.661 352.716H357.071C357.413 352.716 357.691 352.954 357.739 353.288L358.811 360.733C358.922 361.505 358.258 362.236 357.468 362.223C354.187 362.167 352.606 361.974 348.468 361.974C345.922 361.974 342.202 362.238 338.687 362.238C335.248 362.238 334.984 358.761 336.448 358.447C343.012 357.035 344.049 355.088 346.261 353.231C346.659 352.896 347.16 352.716 347.661 352.716Z" fill="#263238"/>
<g opacity="0.2">
<path d="M357.359 334.293H348.979L348.645 344.292H357.025L357.359 334.293Z" fill="black"/>
</g>
<path d="M323.373 124.044C318.19 122.015 313.246 119.808 308.323 117.29C303.408 114.775 298.569 112.096 293.919 108.517C292.761 107.606 291.616 106.61 290.497 105.447C290.218 105.147 289.939 104.869 289.665 104.525C289.377 104.163 289.16 103.95 288.786 103.394C288.11 102.422 287.587 101.117 287.448 99.785C287.317 98.452 287.556 97.179 287.939 96.164C288.321 95.131 288.822 94.288 289.346 93.557C290.397 92.093 291.562 91.011 292.735 90.037C295.078 88.098 297.556 86.688 300.038 85.37C301.278 84.712 302.542 84.119 303.822 83.573C305.108 83.018 306.363 82.502 307.728 82.032L309.503 85.885C305.141 88.634 300.623 91.656 297.301 95.044C296.494 95.883 295.788 96.761 295.344 97.534C294.868 98.321 294.874 98.91 294.955 98.865C294.996 98.865 294.98 98.847 295.096 98.963L295.494 99.39C295.644 99.569 295.855 99.752 296.044 99.936C296.829 100.669 297.75 101.405 298.743 102.105C300.728 103.518 302.915 104.84 305.177 106.075C307.431 107.327 309.75 108.525 312.112 109.662C316.824 111.919 321.71 114.091 326.504 116.075L323.373 124.044Z" fill="#FFB573"/>
<path d="M311.968 83.154L313.353 80.15L307.057 77.964C307.057 77.964 305.096 83.867 307.433 86.591C309.423 86.272 311.124 84.984 311.968 83.154Z" fill="#FFB573"/>
<path d="M313.353 73.656L308.32 72.205L307.057 77.963L313.353 80.15V73.656Z" fill="#FFB573"/>
<path d="M378.35 80.441L379.084 73.421L372.596 74.946C372.596 74.946 372.501 81.526 375.933 82.575L378.35 80.441Z" fill="#FFB573"/>
<path d="M375.957 68.507L371.73 70.481L372.594 74.946L379.082 73.421L375.957 68.507Z" fill="#FFB573"/>
<path d="M347.54 84.255C347.845 92.562 348.152 96.072 344.398 100.721C338.752 107.713 328.481 106.271 325.7 98.222C323.197 90.977 323.118 78.609 330.878 74.527C338.523 70.507 347.235 75.947 347.54 84.255Z" fill="#FFB573"/>
<path d="M343.922 100.705C352.077 97.181 357.441 89.75 355.177 78.131C353.011 67.015 345.506 65.917 342.406 68.223C339.306 70.529 331.579 67.092 326.942 70.994C318.907 77.755 326.503 85.044 330.46 89.363C332.824 94.221 335.92 104.163 343.922 100.705Z" fill="#263238"/>
<path d="M340.536 76.137C343.288 80.122 348.566 81.247 352.326 78.65C356.086 76.054 356.903 70.719 354.151 66.734C351.399 62.749 346.121 61.624 342.361 64.221C338.601 66.817 337.784 72.152 340.536 76.137Z" fill="#7366FF"/>
<path d="M342.653 69.002C341.476 62.304 347.814 57.139 356.289 59.635C364.764 62.131 360.281 69.644 358.543 75.644C356.805 81.644 361.366 87.359 363.272 82.789C365.178 78.22 361.974 76.809 361.974 76.809C361.974 76.809 370.973 79.142 362.613 89.286C354.253 99.431 346.685 88.229 348.732 81.618C350.386 76.276 343.766 75.333 342.653 69.002Z" fill="#263238"/>
<path d="M334.182 71.533C330.313 69.515 323.761 67.883 320.032 74.156C318.269 77.122 318.952 81.145 318.952 81.145L330.341 81.903L334.182 71.533Z" fill="#263238"/>
<path d="M317.612 79.178C317.607 79.178 317.602 79.178 317.596 79.177C317.458 79.169 317.354 79.05 317.362 78.912C317.372 78.742 317.648 74.719 320.076 72.195C325.945 66.097 332.826 71.155 334.795 72.851C334.9 72.941 334.912 73.099 334.821 73.204C334.73 73.309 334.573 73.32 334.468 73.23C332.583 71.607 326.001 66.76 320.436 72.542C318.137 74.931 317.863 78.903 317.86 78.943C317.853 79.075 317.743 79.178 317.612 79.178Z" fill="#263238"/>
<path d="M331.853 89.033C331.841 90.651 331.116 92.235 330.198 93.31C328.816 94.926 327.232 94.13 326.869 92.338C326.542 90.725 326.866 87.941 328.613 86.965C330.333 86.004 331.867 87.183 331.853 89.033Z" fill="#FFB573"/>
<path d="M330.053 165.122C330.053 165.122 330.587 223.266 335.631 255.667C339.705 281.837 347.244 342.356 347.244 342.356H358.666C358.666 342.356 359.782 283.932 357.714 258.048C352.481 192.55 365.985 180.305 355.088 165.122H330.053Z" fill="#263238"/>
<path opacity="0.1" d="M330.053 165.122C330.053 165.122 330.587 223.266 335.631 255.667C339.705 281.837 347.244 342.356 347.244 342.356H358.666C358.666 342.356 359.782 283.932 357.714 258.048C352.481 192.55 365.985 180.305 355.088 165.122H330.053Z" fill="white"/>
<path opacity="0.3" d="M336.055 191.5C340.065 209.05 336.865 236.69 334.675 248.86C332.355 230.38 331.185 206.43 330.605 188.88C332.675 185.52 334.635 185.3 336.055 191.5Z" fill="black"/>
<path d="M345.681 342.582H360.23L360.994 337.478L345.598 336.957L345.681 342.582Z" fill="#7366FF"/>
<path d="M349.832 116.042C351.2 113.321 358.557 111.609 362.578 111.615L365.588 124.98C365.588 124.98 357.576 136.87 354.245 135.609C350.309 134.122 346.9 121.872 349.832 116.042Z" fill="#7366FF"/>
<path opacity="0.4" d="M349.832 116.042C351.2 113.321 358.557 111.609 362.578 111.615L365.588 124.98C365.588 124.98 357.576 136.87 354.245 135.609C350.309 134.122 346.9 121.872 349.832 116.042Z" fill="black"/>
<path d="M341.352 339.313C341.388 339.254 341.391 339.179 341.358 339.117C341.319 339.043 341.237 339.001 341.153 339.014C340.733 339.077 337.031 339.665 336.531 340.722C336.434 340.927 336.448 341.143 336.57 341.347C336.774 341.688 337.063 341.88 337.428 341.917C338.641 342.042 340.393 340.359 341.329 339.345C341.337 339.334 341.345 339.324 341.352 339.313ZM336.911 340.85C337.253 340.289 339.167 339.772 340.628 339.503C339.309 340.844 338.147 341.591 337.467 341.521C337.229 341.496 337.047 341.372 336.909 341.142C336.855 341.052 336.849 340.975 336.889 340.891C336.896 340.877 336.903 340.863 336.911 340.85Z" fill="#7366FF"/>
<path d="M341.352 339.313C341.36 339.301 341.366 339.287 341.37 339.273C341.393 339.207 341.379 339.133 341.334 339.08C341.271 339.007 339.787 337.298 338.42 337.209C338.001 337.182 337.635 337.306 337.33 337.579C336.919 337.947 336.954 338.267 337.057 338.47C337.49 339.328 340.15 339.627 341.223 339.404C341.277 339.392 341.323 339.359 341.352 339.313ZM337.437 338.054C337.468 338.003 337.518 337.943 337.595 337.874C337.82 337.672 338.082 337.584 338.394 337.605C339.292 337.664 340.314 338.593 340.778 339.066C339.593 339.166 337.671 338.806 337.411 338.291C337.396 338.26 337.357 338.184 337.437 338.054Z" fill="#7366FF"/>
<path d="M350.082 335.765L342.421 339.168L339.007 332.063L334.546 322.759L334.023 321.677L341.675 318.269L342.267 319.487L346.592 328.497L350.082 335.765Z" fill="#FFB573"/>
<path opacity="0.2" d="M346.593 328.497L339.008 332.063L334.547 322.759L342.268 319.487L346.593 328.497Z" fill="black"/>
<path d="M321.068 165.122C321.068 165.122 296.594 225.957 303.228 254.604C309.223 280.494 335.732 329.525 335.732 329.525L345.982 324.38C345.982 324.38 329.594 265.192 327.816 252.334C324.357 227.316 346.592 192.001 346.592 165.122H321.068Z" fill="#263238"/>
<path opacity="0.1" d="M321.068 165.122C321.068 165.122 296.594 225.957 303.228 254.604C309.223 280.494 335.732 329.525 335.732 329.525L345.982 324.38C345.982 324.38 329.594 265.192 327.816 252.334C324.357 227.316 346.592 192.001 346.592 165.122H321.068Z" fill="white"/>
<path d="M341.055 338.103L348.663 332.565C348.94 332.363 349.305 332.392 349.54 332.634L354.788 338.023C355.332 338.582 355.225 339.564 354.579 340.018C351.893 341.903 350.501 342.678 347.156 345.113C345.097 346.611 340.995 349.924 338.153 351.993C335.373 354.016 333.113 351.361 334.112 350.245C338.589 345.241 339.532 342.146 340.227 339.343C340.352 338.838 340.65 338.398 341.055 338.103Z" fill="#263238"/>
<path d="M335.073 331.694L348.303 325.642L346.605 320.251L332.438 326.713L335.073 331.694Z" fill="#7366FF"/>
<path d="M327.563 115.36C326.465 112.519 316.906 109.403 312.111 108.315L310.004 124.083C310.004 124.083 317.835 135.338 321.274 134.407C325.334 133.308 329.915 121.447 327.563 115.36Z" fill="#7366FF"/>
<path opacity="0.4" d="M327.563 115.36C326.465 112.519 316.906 109.403 312.111 108.315L310.004 124.083C310.004 124.083 317.835 135.338 321.274 134.407C325.334 133.308 329.915 121.447 327.563 115.36Z" fill="black"/>
<path d="M317.066 114.567C317.066 114.567 313.076 115.972 321.069 165.122C334.568 165.122 348.52 165.122 355.088 165.122C354.517 151.276 354.501 142.739 361.118 114.324C361.118 114.324 353.99 112.773 346.672 112.421C340.947 112.145 336.257 111.962 331.224 112.422C324.591 113.027 317.066 114.567 317.066 114.567Z" fill="#7366FF"/>
<path opacity="0.4" d="M317.066 114.567C317.066 114.567 313.076 115.972 321.069 165.122C334.568 165.122 348.52 165.122 355.088 165.122C354.517 151.276 354.501 142.739 361.118 114.324C361.118 114.324 353.99 112.773 346.672 112.421C340.947 112.145 336.257 111.962 331.224 112.422C324.591 113.027 317.066 114.567 317.066 114.567Z" fill="black"/>
<path d="M355.597 163.125L357.131 166.17C357.25 166.406 356.97 166.647 356.577 166.647H320.9C320.593 166.647 320.339 166.497 320.32 166.304L320.013 163.259C319.992 163.048 320.258 162.869 320.593 162.869H355.043C355.296 162.87 355.52 162.973 355.597 163.125Z" fill="#7366FF"/>
<path opacity="0.3" d="M355.597 163.125L357.131 166.17C357.25 166.406 356.97 166.647 356.577 166.647H320.9C320.593 166.647 320.339 166.497 320.32 166.304L320.013 163.259C319.992 163.048 320.258 162.869 320.593 162.869H355.043C355.296 162.87 355.52 162.973 355.597 163.125Z" fill="white"/>
<path d="M350.971 166.977H351.894C352.078 166.977 352.218 166.882 352.205 166.767L351.772 162.811C351.759 162.695 351.599 162.601 351.415 162.601H350.492C350.308 162.601 350.168 162.696 350.181 162.811L350.614 166.767C350.627 166.883 350.788 166.977 350.971 166.977Z" fill="#263238"/>
<path d="M328.607 166.977H329.53C329.714 166.977 329.854 166.882 329.841 166.767L329.408 162.811C329.395 162.695 329.235 162.601 329.051 162.601H328.128C327.944 162.601 327.804 162.696 327.817 162.811L328.25 166.767C328.262 166.883 328.423 166.977 328.607 166.977Z" fill="#263238"/>
</svg>
